<svg xmlns="http://www.w3.org/2000/svg" viewBox="0 0 275.09 170.08"><defs><style>.cls-1{fill:#3b5999;}</style></defs><g id="Layer_2" data-name="Layer 2"><g id="Layer_1-2" data-name="Layer 1"><path class="cls-1" d="M86.7,110.65v12.58a24.23,24.23,0,1,1-39.83,0V110.65a33.7,33.7,0,0,0-3.47,3,33.07,33.07,0,1,0,46.77,0A33.7,33.7,0,0,0,86.7,110.65Z"/><rect class="cls-1" x="86.7" y="22.62" width="2.65" height="64.13"/><path class="cls-1" d="M50.14,96.54H66.78V91.23H50.14a28,28,0,0,0-27.92,27.92v28.31H8.84V67.85H66.78V59H8.84V43.42A25.45,25.45,0,0,1,34.26,18H89.35V0H41.21L33.33,9.21A34.28,34.28,0,0,0,0,43.42v72.89H4.42v14.3H0V156.3H27.52V119.15A22.64,22.64,0,0,1,50.14,96.54ZM42.44,2.65H86.7V9.16H36.86Z"/><path class="cls-1" d="M58.31,74.38a3.54,3.54,0,0,0-3.53,3.32h12a3.55,3.55,0,0,0-3.53-3.32Z"/><path class="cls-1" d="M66.78,117.8A19.2,19.2,0,0,0,47.7,134.88a18.74,18.74,0,0,0-.13,2.13A19.22,19.22,0,1,0,86,137a18.74,18.74,0,0,0-.13-2.13A19.2,19.2,0,0,0,66.78,117.8ZM83.34,137a16.56,16.56,0,1,1-33.12,0,18.73,18.73,0,0,1,.15-2.13,16.54,16.54,0,0,1,32.82,0A16.68,16.68,0,0,1,83.34,137Z"/><path class="cls-1" d="M275,135.87a33,33,0,1,0-9.63,24.52c.3-.3.56-.62.84-.93v10.62h8.84V135.87Zm-15.88,18.27A24.24,24.24,0,1,1,266.25,137,24.06,24.06,0,0,1,259.16,154.14Z"/><path class="cls-1" d="M255.61,123.43A19.21,19.21,0,1,0,261.24,137,19.08,19.08,0,0,0,255.61,123.43Zm-1.87,25.29A16.56,16.56,0,1,1,258.59,137,16.45,16.45,0,0,1,253.74,148.72Z"/><path class="cls-1" d="M184.87,154.14a24.23,24.23,0,1,1-17.14-41.36v-8.84H108v15.18h8.84v-6.34h28.44c-.31.29-.64.55-.94.85A33.07,33.07,0,1,0,200.8,137H192A24.08,24.08,0,0,1,184.87,154.14Z"/><path class="cls-1" d="M154.15,123.43a19.21,19.21,0,1,0,13.58-5.63A19.06,19.06,0,0,0,154.15,123.43ZM184.3,137a16.56,16.56,0,1,1-4.85-11.71A16.49,16.49,0,0,1,184.3,137Z"/></g></g></svg>